<svg xmlns="http://www.w3.org/2000/svg" viewBox="0 0 429.28 64.1"><defs><style>.cls-1{fill:#27c2d3;}.cls-2{fill:#07179e;}.cls-3{fill:#f9006e;}</style></defs><title>Ресурс 1</title><g id="Слой_2" data-name="Слой 2"><g id="Слой_1-2" data-name="Слой 1"><path class="cls-1" d="M13.39,51.28H25.63a8.56,8.56,0,0,1,8.56,8.56V64.1H0V8.51A8.51,8.51,0,0,1,8.51,0h4.32V50.71A.57.57,0,0,0,13.39,51.28Z"/><path class="cls-1" d="M63.23,12.82a.74.74,0,0,0-.74.74V51.28H73.18V55.7a8.4,8.4,0,0,1-8.4,8.4H39V51.28h9.94a.74.74,0,0,0,.74-.74V12.82H39V8.4A8.4,8.4,0,0,1,47.39,0H73.18V12.82Z"/><path class="cls-1" d="M112.16,12.82H91.35a.56.56,0,0,0-.56.56V25.64H107.7V38.46H91.59a.79.79,0,0,0-.79.79V55.68a8.43,8.43,0,0,1-8.43,8.42H78V8.42A8.42,8.42,0,0,1,86.4,0h25.77Z"/><path class="cls-1" d="M151.15,12.82H130.57a.79.79,0,0,0-.79.79v12h17.09V38.46H130.57a.79.79,0,0,0-.79.79v12h21.37v4.34a8.48,8.48,0,0,1-8.48,8.48H117V8.48A8.48,8.48,0,0,1,125.44,0h25.71Z"/><path class="cls-2" d="M202.39,12.82a.74.74,0,0,0-.74.74V51.28h10.68V55.7a8.4,8.4,0,0,1-8.4,8.4H178.14V51.28h9.94a.74.74,0,0,0,.74-.74V12.82H178.14V8.4a8.4,8.4,0,0,1,8.4-8.4h25.79V12.82Z"/><path class="cls-2" d="M251.32,0V55.66a8.44,8.44,0,0,1-8.44,8.44H238.5l-8.55-25.66V64.1H217.13V8.44A8.44,8.44,0,0,1,225.57,0H230l8.53,25.6V0Z"/><path class="cls-3" d="M291.7,51.28h12.24a8.56,8.56,0,0,1,8.56,8.56V64.1H278.31V8.51A8.51,8.51,0,0,1,286.82,0h4.32V50.71A.57.57,0,0,0,291.7,51.28Z"/><path class="cls-3" d="M343,0a8.52,8.52,0,0,1,8.52,8.52V55.66A8.44,8.44,0,0,1,343,64.1H325.71a8.41,8.41,0,0,1-8.41-8.41V8.44A8.44,8.44,0,0,1,325.74,0Zm-4.3,49.25V14.86a2,2,0,0,0-2-2h-4.4a2.12,2.12,0,0,0-2.12,2.12V49.25a2,2,0,0,0,2,2h4.48A2,2,0,0,0,338.67,49.25Z"/><path class="cls-3" d="M389.73,0a.63.63,0,0,1,.62.73l-2.27,13.74-7,42.44a8.59,8.59,0,0,1-8.47,7.19H367L356.28,0h12.08a.84.84,0,0,1,.83.74l4.22,34.47L377.65,0Z"/><path class="cls-3" d="M429.28,12.82H408.69a.79.79,0,0,0-.79.79v12H425V38.46H408.69a.79.79,0,0,0-.79.79v12h21.37v4.34a8.48,8.48,0,0,1-8.48,8.48H395.09V8.48A8.48,8.48,0,0,1,403.57,0h25.71Z"/></g></g></svg>