<svg xmlns="http://www.w3.org/2000/svg" viewBox="0 0 429.28 595.41"><defs><style>.cls-1{fill:#27c2d3;}.cls-2{fill:#f9006e;}.cls-3{fill:#07179e;}.cls-4{fill:#fff;}</style></defs><title>Ресурс 1</title><g id="Слой_2" data-name="Слой 2"><g id="Слой_1-2" data-name="Слой 1"><polygon class="cls-1" points="277.78 353.62 290.51 352.61 286.77 305.41 286.18 305.31 277.78 353.62"/><polygon class="cls-1" points="292.91 114.81 306.99 33.88 238.21 21.92 244.66 103.3 197.34 107.05 212.62 299.57 246.15 106.68 292.91 114.81"/><polygon class="cls-1" points="216.66 440.88 351.45 464.31 357.47 429.71 216.66 440.88"/><polygon class="cls-1" points="104.52 294.54 97.18 336.72 59.33 330.14 45.26 411.08 75.63 416.36 71.95 369.95 110.26 366.91 104.52 294.54"/><polygon class="cls-1" points="112.13 0 106.6 31.84 236.17 21.56 112.13 0"/><polygon class="cls-2" points="388.26 427.26 376.76 282.25 285.51 289.48 286.77 305.41 376.37 320.99 357.47 429.71 388.26 427.26"/><polygon class="cls-2" points="78.45 451.84 216.66 440.88 75.63 416.36 78.45 451.84"/><polygon class="cls-2" points="275.33 367.69 277.78 353.62 220.51 358.16 275.33 367.69"/><polygon class="cls-2" points="202.96 355.11 217.22 357.59 212.62 299.57 202.96 355.11"/><polygon class="cls-2" points="104.52 294.54 140.37 88.29 98.06 80.94 106.6 31.84 41.01 37.05 47.51 118.94 90.32 115.54 104.52 294.54"/><polygon class="cls-3" points="286.77 305.41 290.51 352.61 277.78 353.62 275.33 367.69 220.51 358.16 217.22 357.59 202.96 355.11 212.62 299.57 197.34 107.05 244.66 103.3 238.21 21.92 238.17 21.41 236.17 21.56 106.6 31.84 98.06 80.94 140.37 88.29 104.52 294.54 110.26 366.91 71.95 369.95 75.63 416.36 216.66 440.88 357.47 429.71 376.37 320.99 286.77 305.41"/><path class="cls-1" d="M13.39,582.59H25.63a8.56,8.56,0,0,1,8.56,8.56v4.26H0v-55.6a8.51,8.51,0,0,1,8.51-8.51h4.32V582A.57.57,0,0,0,13.39,582.59Z"/><path class="cls-1" d="M63.23,544.13a.74.74,0,0,0-.74.74v37.72H73.18V587a8.4,8.4,0,0,1-8.4,8.4H39V582.59h9.94a.74.74,0,0,0,.74-.74V544.13H39v-4.42a8.4,8.4,0,0,1,8.4-8.4H73.18v12.82Z"/><path class="cls-1" d="M112.16,544.13H91.35a.56.56,0,0,0-.56.56v12.26H107.7v12.82H91.59a.79.79,0,0,0-.79.79V587a8.43,8.43,0,0,1-8.43,8.42H78V539.73a8.42,8.42,0,0,1,8.42-8.42h25.77Z"/><path class="cls-1" d="M151.15,544.13H130.57a.79.79,0,0,0-.79.79v12h17.09v12.82H130.57a.79.79,0,0,0-.79.79v12h21.37v4.34a8.48,8.48,0,0,1-8.48,8.48H117V539.79a8.48,8.48,0,0,1,8.48-8.48h25.71Z"/><path class="cls-4" d="M202.39,544.13a.74.74,0,0,0-.74.74v37.72h10.68V587a8.4,8.4,0,0,1-8.4,8.4H178.14V582.59h9.94a.74.74,0,0,0,.74-.74V544.13H178.14v-4.42a8.4,8.4,0,0,1,8.4-8.4h25.79v12.82Z"/><path class="cls-4" d="M251.32,531.31V587a8.44,8.44,0,0,1-8.44,8.44H238.5l-8.55-25.66v25.66H217.13V539.75a8.44,8.44,0,0,1,8.44-8.44H230l8.53,25.6v-25.6Z"/><path class="cls-2" d="M291.7,582.59h12.24a8.56,8.56,0,0,1,8.56,8.56v4.26H278.31v-55.6a8.51,8.51,0,0,1,8.51-8.51h4.32V582A.57.57,0,0,0,291.7,582.59Z"/><path class="cls-2" d="M343,531.31a8.52,8.52,0,0,1,8.52,8.52V587a8.44,8.44,0,0,1-8.44,8.44H325.71A8.41,8.41,0,0,1,317.3,587V539.75a8.44,8.44,0,0,1,8.44-8.44Zm-4.3,49.25V546.16a2,2,0,0,0-2-2h-4.4a2.12,2.12,0,0,0-2.12,2.12v34.31a2,2,0,0,0,2,2h4.48A2,2,0,0,0,338.67,580.56Z"/><path class="cls-2" d="M389.73,531.31a.63.63,0,0,1,.62.73l-2.27,13.74-7,42.44a8.59,8.59,0,0,1-8.47,7.19H367l-10.76-64.1h12.08a.84.84,0,0,1,.83.74l4.22,34.47,4.23-35.2Z"/><path class="cls-2" d="M429.28,544.13H408.69a.79.79,0,0,0-.79.79v12H425v12.82H408.69a.79.79,0,0,0-.79.79v12h21.37v4.34a8.48,8.48,0,0,1-8.48,8.48H395.09V539.79a8.48,8.48,0,0,1,8.48-8.48h25.71Z"/></g></g></svg>