<svg xmlns="http://www.w3.org/2000/svg" xmlns:xlink="http://www.w3.org/1999/xlink" version="1.1" x="0px" y="0px" fill="#828282" viewBox="0 0 100 125" enable-background="new 0 0 100 100" xml:space="preserve"><g><path d="M86.738,23.317c-1.112-1.808-3.444-2.432-5.312-1.421l-16.672,9.032l-4.682-7.61c-1.113-1.81-3.444-2.434-5.312-1.421   L38.09,30.929l-4.682-7.61c-1.113-1.81-3.445-2.433-5.312-1.422L8.095,32.731c-1.942,1.053-2.664,3.48-1.611,5.423   c0.724,1.337,2.1,2.096,3.521,2.096c0.643,0,1.296-0.156,1.901-0.484l16.672-9.031l4.682,7.61c1.113,1.81,3.444,2.436,5.312,1.421   l16.671-9.031l4.682,7.61c1.113,1.81,3.445,2.436,5.312,1.421l16.673-9.031l4.685,7.611c1.156,1.881,3.619,2.467,5.503,1.31   c1.881-1.157,2.468-3.621,1.31-5.503L86.738,23.317z"/><path d="M86.738,61.653c-1.112-1.808-3.444-2.432-5.312-1.421l-16.672,9.032l-4.682-7.61c-1.113-1.81-3.444-2.435-5.312-1.421   L38.09,69.265l-4.682-7.61c-1.113-1.81-3.445-2.433-5.312-1.422L8.095,71.067c-1.942,1.053-2.664,3.48-1.611,5.423   c0.724,1.337,2.1,2.096,3.521,2.096c0.643,0,1.296-0.156,1.901-0.484l16.672-9.031l4.682,7.61c1.113,1.81,3.444,2.435,5.312,1.421   l16.671-9.031l4.682,7.61c1.113,1.81,3.445,2.435,5.312,1.421l16.673-9.031l4.685,7.611c1.156,1.881,3.619,2.466,5.503,1.31   c1.881-1.157,2.468-3.621,1.31-5.503L86.738,61.653z"/></g></svg>