<svg xmlns="http://www.w3.org/2000/svg" xmlns:xlink="http://www.w3.org/1999/xlink" version="1.1" x="0px" y="0px" fill="#828282" viewBox="0 0 100 125" enable-background="new 0 0 100 100" xml:space="preserve"><g><path d="M18.683,43.155c1.646-1.465,1.791-3.991,0.332-5.642C18.62,37.067,9.435,26.468,17,16.937   c1.667-2.102,3.836-2.704,6.44-1.798c5.148,1.794,10.557,8.883,14.469,18.96C43.203,47.734,46,66.812,46,89.27c0,2.209,1.791,4,4,4   s4-1.791,4-4c0-52.417,14.757-71.411,22.56-74.13c2.608-0.91,4.773-0.303,6.44,1.798c7.557,9.521-1.6,20.106-2.013,20.575   c-1.467,1.645-1.327,4.167,0.314,5.639c1.643,1.474,4.171,1.339,5.648-0.306c4.924-5.487,11.744-19.004,2.315-30.881   c-3.785-4.771-9.52-6.409-15.339-4.379C64.784,10.771,55.224,22.79,50,46.68C44.776,22.791,35.216,10.772,26.074,7.585   c-5.819-2.03-11.555-0.392-15.34,4.378c-9.428,11.878-2.607,25.395,2.316,30.882C14.522,44.485,17.038,44.622,18.683,43.155z"/></g></svg>