<svg xmlns="http://www.w3.org/2000/svg" xmlns:xlink="http://www.w3.org/1999/xlink" version="1.1" x="0px" y="0px" fill="#828282" viewBox="0 0 100 125" enable-background="new 0 0 100 100" xml:space="preserve"><g><path d="M24.202,59.122c10.037,0,18.202-8.165,18.202-18.202c0-6.227-3.146-11.728-7.928-15.012   c12.856-3.353,32.476-4.538,53.398,8.583c0.66,0.415,1.396,0.612,2.121,0.612c1.331,0,2.634-0.665,3.393-1.875   c1.174-1.872,0.608-4.34-1.264-5.514c-40.32-25.284-75.673-3.419-77.159-2.476c-0.052,0.033-0.091,0.076-0.14,0.11   C9.548,28.539,6,34.315,6,40.92C6,50.957,14.165,59.122,24.202,59.122z M24.202,51.122C18.577,51.122,14,46.545,14,40.92   s4.577-10.202,10.202-10.202s10.202,4.577,10.202,10.202S29.827,51.122,24.202,51.122z"/><path d="M85.033,74.763c0.05-0.031,0.088-0.073,0.136-0.107C90.45,71.466,94,65.688,94,59.081c0-10.037-8.166-18.203-18.203-18.203   c-10.036,0-18.201,8.166-18.201,18.203c0,6.227,3.146,11.729,7.928,15.012c-12.857,3.352-32.476,4.537-53.398-8.582   c-1.871-1.175-4.342-0.607-5.514,1.264c-1.174,1.872-0.608,4.34,1.264,5.514c14.657,9.19,28.656,12.15,40.612,12.15   C69.42,84.438,84.088,75.362,85.033,74.763z M75.797,48.878C81.423,48.878,86,53.455,86,59.081c0,5.625-4.577,10.202-10.203,10.202   c-5.625,0-10.201-4.577-10.201-10.202C65.596,53.455,70.172,48.878,75.797,48.878z"/></g></svg>