<svg xmlns="http://www.w3.org/2000/svg" xmlns:xlink="http://www.w3.org/1999/xlink" version="1.1" x="0px" y="0px" fill="#828282" viewBox="0 0 100 125" enable-background="new 0 0 100 100" xml:space="preserve"><g><path d="M76.417,44.137c-1.485-0.166-5.144-0.184-9.406,2.613c-3.949,2.592-7.384,6.865-10.267,12.764   c-1.322-4.148-1.075-7.861-1.072-7.908c0.009-0.109,0.014-0.219,0.014-0.328V35.939c0.148-3.301,0.484-18.771-5.791-25.352   c-1.963-2.057-4.438-3.145-7.162-3.145c-6.695,0-11.409,6.387-14.517,13.098C22.307,10.16,10.162,9.994,10,9.994   c-2.209,0-4,1.791-4,4s1.791,4,4,4c1.369,0,13.378,0.451,13.378,16.076v1.732c0,0.008,0,0.014,0,0.02v52.734c0,2.209,1.791,4,4,4   s4-1.791,4-4V36.291c1.945-8.664,7.008-20.848,11.354-20.848c0.442,0,0.845,0.113,1.371,0.664   c2.953,3.094,3.875,13.297,3.587,19.551c-0.003,0.064-0.005,0.127-0.005,0.189v15.295c-0.09,1.504-0.389,10.725,5.2,18.268   c-0.117,0.377-0.232,0.756-0.348,1.141c-0.275,0.807-4.955,14.006-14.957,14.006c-2.209,0-4,1.791-4,4s1.791,4,4,4   c12.868,0,19.47-12.133,21.698-17.299c4.312,2.633,9.674,3.963,16.03,3.963c0.464-0.006,4.655-0.102,8.984-2.076   C90.553,74.293,94,68.891,94,61.936c0-5.582-1.701-10.02-5.056-13.186C84.299,44.363,78.191,44.111,76.417,44.137z M75.271,71.221   c-5.58,0-10.023-1.273-13.245-3.787c5.828-15.248,12.623-15.385,13.4-15.359c0.394,0.113,0.563,0.09,1.014,0.064   c0.044,0.002,4.309-0.125,7.014,2.428C85.143,56.162,86,58.641,86,61.936C86,70.572,77.014,71.186,75.271,71.221z"/></g></svg>