<svg xmlns="http://www.w3.org/2000/svg" xmlns:xlink="http://www.w3.org/1999/xlink" version="1.1" x="0px" y="0px" fill="#828282" viewBox="0 0 100 125" enable-background="new 0 0 100 100" xml:space="preserve"><g><path d="M55.558,77.446c0,7.65,3.542,13.32,9.718,15.556c1.857,0.672,3.902,0.989,5.972,0.989c5.208,0,10.562-2.01,13.403-5.421   c1.414-1.697,1.185-4.22-0.513-5.634c-1.696-1.413-4.22-1.185-5.634,0.513c-1.504,1.806-6.579,3.453-10.505,2.03   c-2.988-1.082-4.441-3.709-4.441-8.033c0-6.025,3.35-10.338,7.59-15.798c5.402-6.956,11.525-14.841,11.525-28.09   c0-27.55-18.57-27.55-25.562-27.55c-14.48,0-23.733,8.6-25.385,23.594c-0.421,3.821,0.397,7.657,1.625,11.018   c-0.337-0.019-0.671-0.051-1.013-0.051c-9.878,0-17.916,8.037-17.916,17.915c0,9.879,8.037,17.916,17.916,17.916   s17.916-8.037,17.916-17.916c0-4.692-1.828-8.956-4.792-12.153c-0.007-0.01-0.011-0.021-0.018-0.029   c-1.829-2.357-6.43-9.796-5.766-15.822c1.204-10.93,7.069-16.471,17.433-16.471c9.255,0,17.562,1.495,17.562,19.55   c0,10.507-4.781,16.664-9.844,23.184C60.271,62.611,55.558,68.68,55.558,77.446z M32.338,68.4c-5.467,0-9.916-4.448-9.916-9.916   c0-5.467,4.448-9.915,9.916-9.915s9.916,4.448,9.916,9.915C42.253,63.952,37.805,68.4,32.338,68.4z"/></g></svg>