<svg xmlns="http://www.w3.org/2000/svg" xmlns:xlink="http://www.w3.org/1999/xlink" version="1.1" x="0px" y="0px" fill="#828282" viewBox="0 0 100 125" enable-background="new 0 0 100 100" xml:space="preserve"><g><path d="M90,78.057H10c-2.209,0-4,1.791-4,4s1.791,4,4,4h80c2.209,0,4-1.791,4-4S92.209,78.057,90,78.057z"/><path d="M90,54.227H74.161c2.194-3.979,3.385-8.483,3.385-13.092c0-14.993-12.198-27.191-27.191-27.191   S23.163,26.142,23.163,41.135c0,4.608,1.19,9.112,3.385,13.092H10c-2.209,0-4,1.791-4,4s1.791,4,4,4h24.718   c1.65,0,3.131-1.014,3.729-2.552s0.189-3.285-1.028-4.399c-4.033-3.69-6.255-8.713-6.255-14.141   c0-10.582,8.609-19.191,19.191-19.191s19.191,8.609,19.191,19.191c0,5.428-2.222,10.45-6.255,14.141   c-1.218,1.114-1.583,2.861-0.985,4.399s2.121,2.552,3.771,2.552H90c2.209,0,4-1.791,4-4S92.209,54.227,90,54.227z"/></g></svg>