<svg xmlns="http://www.w3.org/2000/svg" xmlns:xlink="http://www.w3.org/1999/xlink" version="1.1" x="0px" y="0px" fill="#828282" viewBox="0 0 100 125" enable-background="new 0 0 100 100" xml:space="preserve"><g><path d="M82.451,46H67.217c1.154-24.014,12.482-32.295,13.053-32.696c1.812-1.237,2.293-3.707,1.066-5.532   c-1.23-1.834-3.715-2.326-5.549-1.093C75.135,7.116,60.48,17.305,59.211,46H40.789C39.52,17.305,24.863,7.116,24.211,6.679   c-1.82-1.222-4.271-0.738-5.512,1.072s-0.775,4.293,1.023,5.55C20.234,13.656,31.625,21.916,32.783,46H17.549c-2.209,0-4,1.791-4,4   s1.791,4,4,4h15.234c-1.154,24.013-12.484,32.295-13.055,32.696c-1.812,1.236-2.293,3.707-1.066,5.532   C19.434,93.379,20.697,94,21.986,94c0.766,0,1.541-0.22,2.225-0.679C24.863,92.884,39.52,82.694,40.789,54h18.422   c1.27,28.694,15.924,38.884,16.574,39.321C76.471,93.78,77.244,94,78.012,94c1.287,0,2.553-0.621,3.324-1.771   c1.232-1.835,0.742-4.319-1.092-5.551C80.119,86.595,68.396,78.421,67.217,54h15.234c2.209,0,4-1.791,4-4S84.66,46,82.451,46z"/></g></svg>