<svg xmlns="http://www.w3.org/2000/svg" xmlns:xlink="http://www.w3.org/1999/xlink" version="1.1" x="0px" y="0px" fill="#828282" viewBox="0 0 100 125" enable-background="new 0 0 100 100" xml:space="preserve"><g><path d="M93.986,9.881c-0.005-0.184-0.023-0.365-0.055-0.548c-0.012-0.068-0.02-0.137-0.035-0.204   c-0.05-0.222-0.113-0.441-0.202-0.656c-0.001-0.002-0.003-0.005-0.004-0.007c-0.017-0.042-0.041-0.079-0.06-0.12   c-0.08-0.176-0.171-0.344-0.273-0.503c-0.041-0.063-0.086-0.123-0.131-0.185c-0.098-0.135-0.202-0.262-0.315-0.382   c-0.049-0.053-0.096-0.104-0.147-0.154c-0.151-0.146-0.312-0.28-0.484-0.4c-0.019-0.013-0.034-0.028-0.053-0.04   c-0.189-0.128-0.393-0.233-0.602-0.327c-0.066-0.029-0.136-0.053-0.204-0.079c-0.158-0.061-0.319-0.11-0.484-0.15   c-0.072-0.018-0.144-0.036-0.217-0.05c-0.236-0.043-0.476-0.072-0.721-0.072H48.156c-2.209,0-4,1.791-4,4s1.791,4,4,4h32.186   L38.493,55.85L19.379,36.733c-1.562-1.562-4.094-1.562-5.657-0.001c-1.562,1.562-1.562,4.095,0,5.657l19.114,19.116L7.172,87.169   c-1.562,1.562-1.562,4.095,0,5.656c0.781,0.781,1.805,1.172,2.829,1.172c1.023,0,2.047-0.391,2.828-1.172l25.664-25.662   l19.109,19.111c0.781,0.781,1.806,1.172,2.829,1.172s2.047-0.391,2.828-1.171c1.562-1.562,1.562-4.095,0-5.657L44.148,61.507   l41.851-41.849L86,51.837c0,2.209,1.791,4,4,4s4-1.791,4-4l-0.001-41.834C93.999,9.961,93.988,9.922,93.986,9.881z"/></g></svg>