<svg xmlns="http://www.w3.org/2000/svg" xmlns:xlink="http://www.w3.org/1999/xlink" version="1.1" x="0px" y="0px" fill="#828282" viewBox="0 0 100 125" enable-background="new 0 0 100 100" xml:space="preserve"><g><path d="M79.858,75.723c-1.172-1.065-2.86-1.339-4.311-0.701c-1.448,0.641-2.383,2.075-2.383,3.659v2.322   c-1.199-0.252-2.154-0.725-2.847-1.419c-1.613-1.617-1.632-4.136-1.633-4.136c0.001-0.037,0.002-0.073,0.002-0.11V31.803   c0.678-14.757-4.03-20.477-4.982-21.476c-1.758-1.843-3.98-2.816-6.428-2.816c-4.113,0-7.731,2.621-10.799,7.784   c-0.715-1.91-1.663-3.644-2.926-4.968c-1.758-1.843-3.98-2.816-6.428-2.816c-4.438,0-8.3,3.051-11.516,9.058   c-2.578-5.957-6.034-9.271-6.266-9.487c-1.603-1.504-4.111-1.425-5.627,0.17c-1.515,1.594-1.45,4.121,0.134,5.646   c0.269,0.258,6.566,6.449,6.566,17.341v1.427c0,0.007,0,0.013,0,0.019v43.654c0,2.209,1.791,4,4,4s4-1.791,4-4v-43.17   c2.095-9.408,6.366-16.657,8.708-16.657c0.147,0,0.315,0,0.637,0.337c2.276,2.383,3.004,10.763,2.778,15.672   c-0.003,0.063-0.005,0.126-0.005,0.189v43.629c0,2.209,1.791,4,4,4s4-1.791,4-4V32.302c1.74-7.823,5.894-16.791,8.742-16.791   c0.147,0,0.315,0,0.637,0.337c2.276,2.383,3.003,10.763,2.778,15.672c-0.003,0.063-0.005,0.126-0.005,0.189v43.593   c-0.013,0.865,0.084,5.942,3.857,9.82c2.192,2.254,5.093,3.572,8.62,3.961v0.915c0,1.584,0.935,3.019,2.383,3.658   c0.52,0.229,1.07,0.342,1.616,0.342c0.978,0,1.942-0.358,2.693-1.042l6.215-5.658c0.833-0.758,1.308-1.832,1.308-2.958   s-0.475-2.199-1.307-2.958L79.858,75.723z"/></g></svg>