<svg xmlns="http://www.w3.org/2000/svg" xmlns:xlink="http://www.w3.org/1999/xlink" version="1.1" x="0px" y="0px" fill="#828282" viewBox="0 0 100 125" enable-background="new 0 0 100 100" xml:space="preserve"><g><path d="M10,18.803l0.323-0.004c7.32-0.113,13.312,3.857,17.209,11.507c2.654,5.211,5.81,8.641,8.921,10.895   c-7.415,4.565-12.37,12.755-12.37,22.083c0,14.291,11.626,25.918,25.917,25.918s25.918-11.627,25.918-25.918   c0-9.328-4.956-17.519-12.371-22.084c3.111-2.253,6.268-5.683,8.922-10.894c3.897-7.651,9.858-11.626,17.208-11.508L90,18.803   c2.209,0,4-1.791,4-4s-1.791-4-4-4l-0.19-0.002c-10.499-0.178-19.166,5.464-24.47,15.875c-4.778,9.38-11.289,10.629-13.796,10.743   c-0.395-0.023-0.791-0.036-1.189-0.041c-0.059-0.004-0.117-0.002-0.176-0.004c-0.06,0-0.119-0.004-0.179-0.004   c-0.518,0-1.031,0.02-1.541,0.05c-2.505-0.112-9.018-1.357-13.798-10.743C29.437,16.42,20.927,10.797,10.66,10.797   c-0.156,0-0.313,0.001-0.47,0.004L10,10.803c-2.209,0-4,1.791-4,4S7.791,18.803,10,18.803z M50,81.203   c-9.88,0-17.917-8.038-17.917-17.918c0-9.551,7.516-17.356,16.94-17.868c0.396-0.001,0.725-0.017,0.977-0.034   c0.252,0.018,0.579,0.033,0.977,0.034c9.425,0.512,16.941,8.317,16.941,17.868C67.918,73.165,59.88,81.203,50,81.203z"/></g></svg>