<svg xmlns="http://www.w3.org/2000/svg" xmlns:xlink="http://www.w3.org/1999/xlink" version="1.1" x="0px" y="0px" fill="#828282" viewBox="0 0 100 125" enable-background="new 0 0 100 100" xml:space="preserve"><g><path d="M84.011,58.34c4.014-14.022-0.365-27.413-3.485-31.149c-1.438-1.724-3.482-2.554-5.597-2.282   c-1.251,0.162-3.182,0.891-5.572,3.31c-0.069-4.927-0.813-13.645-4.932-17.964c-1.734-1.817-3.927-2.778-6.343-2.778   c-4.006,0-7.531,2.52-10.522,7.479c-0.694-1.805-1.606-3.441-2.808-4.701c-1.734-1.817-3.927-2.778-6.343-2.778   c-4.329,0-8.097,2.939-11.236,8.727c-2.517-5.722-5.832-8.909-6.056-9.119c-1.611-1.512-4.143-1.431-5.654,0.178   c-1.512,1.61-1.433,4.142,0.178,5.654c0.063,0.06,6.36,6.097,6.36,16.842v1.397c0,0.002,0,0.005,0,0.007v42.623   c0,2.209,1.791,4,4,4s4-1.791,4-4V31.652c1.882-8.368,5.921-16.177,8.408-16.177c0.131,0,0.267,0,0.553,0.299   c2.202,2.306,2.904,10.453,2.686,15.229c-0.003,0.063-0.005,0.126-0.005,0.189v42.591c0,2.209,1.791,4,4,4s4-1.791,4-4V31.799   c2.023-9.21,6.177-16.323,8.439-16.323c0.131,0,0.267,0,0.553,0.299c2.202,2.306,2.904,10.453,2.686,15.229   c-0.003,0.063-0.005,0.126-0.005,0.189v42.591c0,0.042,0.001,0.083,0.002,0.125c0.007,0.207,0.024,0.641,0.069,1.236   c-3.573,2.234-7.72,4.135-12.442,5.687c-2.099,0.689-3.241,2.95-2.551,5.049c0.554,1.684,2.118,2.752,3.799,2.752   c0.414,0,0.835-0.064,1.25-0.201c4.353-1.431,8.144-3.1,11.46-4.93c1.171,3.86,3.202,7.869,6.731,9.945   C70.271,93.821,70.969,94,71.658,94c1.371,0,2.706-0.706,3.452-1.973c1.119-1.904,0.484-4.356-1.42-5.477   c-1.773-1.042-3.02-4.354-3.721-7.713C78.308,72.258,82.218,64.604,84.011,58.34z M75.134,33.672   c1.552,3.479,4.028,12.536,1.186,22.467c-1.345,4.7-3.697,8.858-7.004,12.478V42.817C71.152,39.073,73.525,35.372,75.134,33.672z"/></g></svg>